<svg width="32" height="32" viewBox="0 0 32 32" fill="none" xmlns="http://www.w3.org/2000/svg">
    <path d="M16 4C8.66666 4 2.66666 8.77333 2.66666 14.6667C2.73333 17.5333 4.08 20.2267 6.33333 22C6.33333 22.8 5.77333 24.8933 2.66666 28C5.82666 27.8533 8.85333 26.6667 11.2933 24.6667C12.8133 25.1067 14.4133 25.3333 16 25.3333C23.3333 25.3333 29.3333 20.56 29.3333 14.6667C29.3333 8.77333 23.3333 4 16 4ZM16 22.6667C10.1067 22.6667 5.33333 19.08 5.33333 14.6667C5.33333 10.2533 10.1067 6.66667 16 6.66667C21.8933 6.66667 26.6667 10.2533 26.6667 14.6667C26.6667 19.08 21.8933 22.6667 16 22.6667Z" fill="#F5F3EB"/>
</svg>
