<svg width="36" height="37" viewBox="0 0 36 37" fill="none" xmlns="http://www.w3.org/2000/svg">
    <path d="M13.0909 5.40909L17.1818 14.4091L26.1818 18.5L17.1818 22.5909L13.0909 31.5909L9 22.5909L0 18.5L9 14.4091L13.0909 5.40909ZM13.0909 13.3127L11.4545 16.8636L7.90364 18.5L11.4545 20.1364L13.0909 23.6873L14.7273 20.1364L18.2782 18.5L14.7273 16.8636L13.0909 13.3127ZM29.4545 13.5909L27.3927 9.10727L22.9091 7.04545L27.3927 5L29.4545 0.5L31.5 5L36 7.04545L31.5 9.10727L29.4545 13.5909ZM29.4545 36.5L27.3927 32.0164L22.9091 29.9545L27.3927 27.9091L29.4545 23.4091L31.5 27.9091L36 29.9545L31.5 32.0164L29.4545 36.5Z" fill="#1C1C1C"/>
</svg>
